/* XPM */
static char *_f5aa536a9734e46c83abf61008eb2e9R8iASncXjpeyEuhr[] = {
/* columns rows colors chars-per-pixel */
"31 32 118 2 ",
"   c None",
".  c #DD3EFD",
"X  c #DD3DFE",
"o  c #DE3DFE",
"O  c #DE3DFF",
"+  c #DD3EFE",
"@  c #DE3EFE",
"#  c #DE3FFE",
"$  c #DE3EFF",
"%  c #DE3FFF",
"&  c #DD40FD",
"*  c #DD41FD",
"=  c #DD42FD",
"-  c #DE42FD",
";  c #DE40FE",
":  c #DE41FE",
">  c #DE40FF",
",  c #DE42FE",
"<  c #DE43FE",
"1  c #DE43FF",
"2  c #DF43FF",
"3  c #DD44FD",
"4  c #DE45FE",
"5  c #DF45FF",
"6  c #DF46FE",
"7  c #DE47FE",
"8  c #DF47FE",
"9  c #DF49FE",
"0  c #DF4AFE",
"q  c #DF4CFE",
"w  c #E050FF",
"e  c #E15FFF",
"r  c #E160FE",
"t  c #E163FF",
"y  c #E26BFF",
"u  c #E26CFE",
"i  c #E370FF",
"p  c #E478FE",
"a  c #E37CFD",
"s  c #E485FB",
"d  c #E683FF",
"f  c #E585FD",
"g  c #E584FF",
"h  c #E585FF",
"j  c #E696FB",
"k  c #E797FD",
"l  c #E797FE",
"z  c #E698FB",
"x  c #E9A4FD",
"c  c #EBAFFC",
"v  c #EBB0FC",
"b  c #EBB1FC",
"n  c #EBB1FD",
"m  c #EDB4FD",
"M  c #ECB7FC",
"N  c #EEB6FD",
"B  c #EFB6FD",
"V  c #ECBDFB",
"C  c #ECB8FC",
"Z  c #EEB9FD",
"A  c #EFB9FD",
"S  c #EFC0FC",
"D  c #F1C7FD",
"F  c #F2C9FE",
"G  c #F2CDFD",
"H  c #F1CEFC",
"J  c #F2CFFC",
"K  c #F2CDFE",
"L  c #F3D6FB",
"P  c #F3D1FE",
"I  c #F4D4FD",
"U  c #F4D7FD",
"Y  c #F5D7FD",
"T  c #F3DCFB",
"R  c #F4D8FD",
"E  c #F5D8FD",
"W  c #F5DDFC",
"Q  c #F7DDFD",
"!  c #F6DCFE",
"~  c #F7DEFE",
"^  c #F5E5FA",
"/  c #F6E0FC",
"(  c #F7E0FD",
")  c #F8E0FE",
"_  c #F8E4FE",
"`  c #F8E7FE",
"'  c #F7E8FC",
"]  c #F8E8FC",
"[  c #F8EAFD",
"{  c #F8EBFD",
"}  c #FAEBFC",
"|  c #F9E9FE",
" . c #F9EBFE",
".. c #FBEFFE",
"X. c #FAF0FD",
"o. c #FAF1FD",
"O. c #FBF2FD",
"+. c #FCF3FD",
"@. c #FCF3FE",
"#. c #FBF5FC",
"$. c #FAF6FC",
"%. c #FBF6FC",
"&. c #FCF6FD",
"*. c #FDF7FD",
"=. c #FCF4FE",
"-. c #FEF4FE",
";. c #FDF7FE",
":. c #FCF9FD",
">. c #FCFAFD",
",. c #FDFAFD",
"<. c #FDFBFD",
"1. c #FDF9FE",
"2. c #FDFBFE",
"3. c #FEFBFE",
"4. c #FDFCFD",
"5. c #FEFCFE",
"6. c #FEFDFE",
"7. c #FEFEFE",
/* pixels */
"                        O 4 O O O 9 O                         ",
"                  O O O O O O O O O O O O O                   ",
"              = O O s O O O O O O O O O O O O =               ",
"            O O O O <.S O O O O O O O O O O O O =             ",
"          O O O O O 6.6.C % O O O O O O O O O O O O           ",
"        O O O O O O ] 6.6.C O O O O O O O O O O O O O         ",
"      = O O O O O O ] <.6.6.C i u w O O O O O O O O O O       ",
"    O O O O O O O O ~ 6.6.6.6.6.6.+.&.V l O O O O O O O O     ",
"    O O O O O O O O U &.6.6.6.6.6.$.&.6.>.P r O O O O O O     ",
"  O O O O O O O O O T %.6.6.6.6.%.6.<.6.6.6.] t O O O O O O   ",
"  O O O O O O O O O L 6.$.6.6.6.6.6.6.6.6.6.6.P O O O O O O   ",
"  O O O O O O O O O ( 6.6.6.6.6.6.6.6.6.6.6.6.6.d O O O O O   ",
"= O O O O O O O O O } o._ o.6.6.6.6.6.6.6.6.$.6.B O O O O O = ",
"O O O O O O O O O O O O O O O O O O x 6.6.6.6.6.) O O O O O O ",
"4 O O O O O O O O O O O O O O O O O O o.<.<.6.6.~ O O O O O 4 ",
"O O O O O O O O O O O O O O O O O O a 6.6.6.6.6.~ O O O O O O ",
"O O O O O O O O O O B R _ ~ ' ' ] _ +.6.6.6.6.6.C = O O O O O ",
"9 O O O O O O O O O G 6.6.( $.6.<.6.6.6.6.6.6.6.p O O O O O 0 ",
"= O O O O O O O O O P 6.6.{ 6.4.6.6.6.6.6.6.6.G O O O O O O O ",
"= O O O O O O O O O ' 6.6.} 6.6.6.6.6.6.6.6._ e O O O O O O = ",
"  O O O O O O O O O 6.6.6.6.6.6.6.6.6.6.6.R y O O O O O O O   ",
"  O O O O O O O O O o.6.6.6.6.6.6.6.<.~ k O O O O O O O O O   ",
"  q O O O O O O O O _ 6.6.6.6.F d d O O O O O O O O O O O =   ",
"    O O O O O O O O o.6.6.6.6.b = O O O O O O O O O O O O     ",
"    = O O O O O O O m 6.6.6.6.v O O O O O O O O O O % O O     ",
"      4 O O O O O O O c 6.6.6.v O O O O O O O O O O % 2       ",
"        O O O O O O O O F 6.&.j O O O O O O O O O % O         ",
"          = O O O O O O O U ^ O O O O O O O O O O =           ",
"            = % O O O O O O U j O O O O O O O O =             ",
"              = O % O O O % % f O O O O O % O 2               ",
"                  = O O O O O O O O O O % %                   ",
"                        = 6 O O O 6 =                         "
};
