/* XPM */
static char *da42699f26474bf9893bc0ce6066686dr7s7hsqIx9PsSgf4[] = {
/* columns rows colors chars-per-pixel */
"62 64 34 1 ",
"  c None",
". c #DE3DFF",
"X c #DD43FD",
"o c #DE4BFC",
"O c #DE52FD",
"+ c #DF5DFC",
"@ c #E154FE",
"# c #E15CFD",
"$ c #E061FD",
"% c #E16FFB",
"& c #E273FB",
"* c #E37AFC",
"= c #E483FD",
"- c #E68AFD",
"; c #E692FC",
": c #E995FD",
"> c #E69EFB",
", c #EA9DFD",
"< c #EAA4FC",
"1 c #EBACFD",
"2 c #ECB2FB",
"3 c #EEBBFC",
"4 c #F1BEFE",
"5 c #EEC2FA",
"6 c #F1C5FD",
"7 c #F2CBFD",
"8 c #F4D5FC",
"9 c #F5DCFB",
"0 c #F9DFFD",
"q c #F6E4FB",
"w c #F9E5FD",
"e c #FAECFC",
"r c #FBF3FD",
"t c #FEFDFE",
/* pixels */
"                         oX.X....o..o                         ",
"                      X................X                      ",
"                   .......................X                   ",
"                 X..........................X                 ",
"               X....#.........................o               ",
"              ......5>..........................              ",
"            ........9q3..........................X            ",
"           X........ett6..........................o           ",
"          ..........ettt<...........................          ",
"         X..........9tttt7..........................X         ",
"        ............qttttt3...........................        ",
"       X............9tttttt3..........................X       ",
"      o.............0ttttttt2..........................o      ",
"      ..............9trtttttt3&*&&$X....................      ",
"     X..............5tttttttttetrrrqqq<..................     ",
"    X...............;ttttttttttttttrtttqe-...............o    ",
"    X...............2trttttttttttttrtqrttr8O..............    ",
"   .................;ttrtttttttttttttrrtttte;..............   ",
"   .................2ttrttttttttqttttrttttttt>.............   ",
"  o.................6ttttttttttttttttttttttttr<............o  ",
"  ..................2tttttttttttttttttttttttttr+............  ",
"  ..................<tttttttttttttttttttttttttt7............  ",
" ...................-ttttttttttttttttttttttttttr=...........X ",
" ...................8ttttttttttttttttttttttttttt3............ ",
" ...................9tttttrttttttttttttttttrrttt8............ ",
" ...................8ee8622rerrrrrrrttttttttttttr-........... ",
"X..................................X<tttttttttttt2...........X",
"X....................................*rtttttttttt3...........X",
"......................................7t9tttttttt2............",
"X.....................................etttttttttt1...........o",
"......................................etttttttttt1............",
".....................................qrtttttttttt1............",
"....................:>:62676767764337tttttttttttt&............",
"....................<wrttt9qttttttttttttttttttttq.............",
"@X..................=tttttt5tttttttttttttttttttt1............O",
"X...................=tttttt<tttrtqtttttttttttttt-............X",
"O...................=ttttttrttttttttttttttttttt6.............o",
"o...................:etert2tttrttttttttttttttte#..............",
" ...................8ttttt;ttttttttttttttttttr:.............. ",
" ...................8ttttrttttttttttttttttttt;............... ",
" o..................8ttttttrtttttttttttttttr<...............X ",
" #..................etttttttttttttttttttttw&................o ",
"  ..................ettttttttttttttttttte<o.................  ",
"  o.................8tttttttttttttttee8,X..................X  ",
"  @.................8tttttttttt<<,,:@......................O  ",
"   .................wtttttttttt............................   ",
"   X................etttttttttr...........................X   ",
"    ................8tttttttttr..........................X    ",
"    O...............<ttttttttte..........................o    ",
"     X...............2ttttttttt..........................     ",
"      ................<tttttttt.........................      ",
"      #................2ttttttr........................@      ",
"       @...............X:ttttte.......................o       ",
"        ................Xqtttw5.......................        ",
"         X...............owtt4......................X         ",
"          X...............@wtt......................          ",
"           o...............@wt1...................X           ",
"            O...............#9t..................O            ",
"              X..............@w................X              ",
"               o..............@...............o               ",
"                 X..........................X                 ",
"                   o......................X                   ",
"                     oO................O                      ",
"                         oOXo....oXoX                         "
};
