/* XPM */
static char *_ba732ba929d4c808ba803805b01bf10ZRjAcWCuabklQnJy[] = {
/* columns rows colors chars-per-pixel */
"16 16 53 1 ",
"  c None",
". c #DE3DFE",
"X c #DE3DFF",
"o c #DD3EFE",
"O c #DE3EFE",
"+ c #DE3EFF",
"@ c #DD41FE",
"# c #DE42FE",
"$ c #DE43FF",
"% c #DF4CFF",
"& c #DF4EFF",
"* c #E162FE",
"= c #E371FF",
"- c #E373FF",
"; c #E585FE",
": c #E89DFD",
"> c #EA9CFE",
", c #E99FFE",
"< c #EAA2FE",
"1 c #EAA7FE",
"2 c #EBAEFD",
"3 c #EBAFFD",
"4 c #ECAEFF",
"5 c #EDB1FE",
"6 c #EEBCFD",
"7 c #F0C2FE",
"8 c #F1C3FE",
"9 c #F2CAFE",
"0 c #F0D9F7",
"q c #F3D3FE",
"w c #F3D6FD",
"e c #F4D9FD",
"r c #F5DAFD",
"t c #F5D8FE",
"y c #F5DDFD",
"u c #F6DDFE",
"i c #F6DEFE",
"p c #F6E7FB",
"a c #F6E3FC",
"s c #F7E2FE",
"d c #F7E4FE",
"f c #F8E5FE",
"g c #F8E7FE",
"h c #F9EFFC",
"j c #FAF0FD",
"k c #FBF5FD",
"l c #FCFAFD",
"z c #FDFAFE",
"x c #FDFBFE",
"c c #FDFCFE",
"v c #FEFCFE",
"b c #FEFDFE",
"n c #FEFEFE",
/* pixels */
"     OXXXXX     ",
"   XO5&XXXXXX   ",
"  XXOde#XXXXXX  ",
" XXXOycy81=XXXX ",
" XXXXexcccc8XXX ",
"XXXXXqcccccc:XXX",
"XXXXX<445eccyXX#",
"XXXXXXXXX;xcgXXX",
"XXXXO6p0pkcc9OOO",
"%XXXOyjccccj*+O&",
"XXXXOdcccce-XXOO",
" XXOOgcx$OOOXOO ",
" OOOX>xxXXXXXXX ",
"  XXOO1dXXXXXX  ",
"   OOOX<XXOOO   ",
"     O+XXOO     "
};
